<svg width="48" height="48" viewBox="0 0 48 48" fill="none" xmlns="http://www.w3.org/2000/svg">
<g id="Duotone/ChatCircleDots">
<path id="Vector" opacity="0.2" d="M8.51301 33.1867C6.27967 29.4187 5.49847 24.9651 6.31608 20.6619C7.13369 16.3588 9.49387 12.5021 12.9535 9.81578C16.4132 7.12949 20.7344 5.79837 25.106 6.07234C29.4775 6.3463 33.5987 8.2065 36.696 11.3037C39.7932 14.4009 41.6534 18.5222 41.9273 22.8937C42.2013 27.2653 40.8702 31.5865 38.1839 35.0461C35.4976 38.5058 31.6409 40.866 27.3377 41.6836C23.0346 42.5012 18.581 41.72 14.813 39.4867L8.58801 41.2492C8.33296 41.3238 8.06255 41.3284 7.80511 41.2625C7.54768 41.1967 7.31269 41.0628 7.1248 40.8749C6.9369 40.687 6.80301 40.452 6.73715 40.1946C6.6713 39.9371 6.67591 39.6667 6.75051 39.4117L8.51301 33.1867Z" fill="#2DB324"/>
<path id="Vector_2" d="M8.51301 33.1867C6.27967 29.4187 5.49847 24.9651 6.31608 20.6619C7.13369 16.3588 9.49387 12.5021 12.9535 9.81578C16.4132 7.12949 20.7344 5.79837 25.106 6.07234C29.4775 6.3463 33.5987 8.2065 36.696 11.3037C39.7932 14.4009 41.6534 18.5222 41.9273 22.8937C42.2013 27.2653 40.8702 31.5865 38.1839 35.0461C35.4976 38.5058 31.6409 40.866 27.3377 41.6836C23.0346 42.5012 18.581 41.72 14.813 39.4867L8.58801 41.2492C8.33296 41.3238 8.06255 41.3284 7.80511 41.2625C7.54768 41.1967 7.31269 41.0628 7.1248 40.8749C6.9369 40.687 6.80301 40.452 6.73715 40.1946C6.6713 39.9371 6.67591 39.6667 6.75051 39.4117L8.51301 33.1867Z" stroke="#2DB324" stroke-width="3" stroke-linecap="round" stroke-linejoin="round"/>
<path id="Vector_3" d="M24 26.25C25.2426 26.25 26.25 25.2426 26.25 24C26.25 22.7574 25.2426 21.75 24 21.75C22.7574 21.75 21.75 22.7574 21.75 24C21.75 25.2426 22.7574 26.25 24 26.25Z" fill="#2DB324"/>
<path id="Vector_4" d="M15 26.25C16.2426 26.25 17.25 25.2426 17.25 24C17.25 22.7574 16.2426 21.75 15 21.75C13.7574 21.75 12.75 22.7574 12.75 24C12.75 25.2426 13.7574 26.25 15 26.25Z" fill="#2DB324"/>
<path id="Vector_5" d="M33 26.25C34.2426 26.25 35.25 25.2426 35.25 24C35.25 22.7574 34.2426 21.75 33 21.75C31.7574 21.75 30.75 22.7574 30.75 24C30.75 25.2426 31.7574 26.25 33 26.25Z" fill="#2DB324"/>
</g>
</svg>
