<svg width="32" height="32" viewBox="0 0 32 32" fill="none" xmlns="http://www.w3.org/2000/svg">
<g id="Duotone/CreditCard">
<path id="Vector" opacity="0.2" d="M3 12.1133H29V24.0008C29 24.266 28.8946 24.5204 28.7071 24.7079C28.5196 24.8954 28.2652 25.0008 28 25.0008H4C3.73478 25.0008 3.48043 24.8954 3.29289 24.7079C3.10536 24.5204 3 24.266 3 24.0008V12.1133Z" fill="#FA8232"/>
<path id="Vector_2" d="M28 7H4C3.44772 7 3 7.44772 3 8V24C3 24.5523 3.44772 25 4 25H28C28.5523 25 29 24.5523 29 24V8C29 7.44772 28.5523 7 28 7Z" stroke="#FA8232" stroke-width="2" stroke-linecap="round" stroke-linejoin="round"/>
<path id="Vector_3" d="M21 21H25" stroke="#FA8232" stroke-width="2" stroke-linecap="round" stroke-linejoin="round"/>
<path id="Vector_4" d="M15 21H17" stroke="#FA8232" stroke-width="2" stroke-linecap="round" stroke-linejoin="round"/>
<path id="Vector_5" d="M3 12.1133H29" stroke="#FA8232" stroke-width="2" stroke-linecap="round" stroke-linejoin="round"/>
</g>
</svg>
