<svg width="48" height="48" viewBox="0 0 48 48" fill="none" xmlns="http://www.w3.org/2000/svg">
<g id="Duotone/PhoneCall">
<path id="Vector" opacity="0.2" d="M17.3437 23.3996C18.8873 26.5871 21.4648 29.158 24.6562 30.6933C24.8917 30.8048 25.1521 30.853 25.4118 30.8333C25.6715 30.8136 25.9216 30.7266 26.1375 30.5808L30.825 27.4496C31.0321 27.3091 31.2714 27.2234 31.5206 27.2004C31.7698 27.1775 32.0207 27.2181 32.25 27.3183L41.025 31.0871C41.3249 31.2119 41.5755 31.4318 41.7381 31.7131C41.9007 31.9943 41.9664 32.3211 41.925 32.6433C41.6469 34.8141 40.5873 36.8091 38.9446 38.2551C37.3018 39.7012 35.1885 40.4991 33 40.4996C26.237 40.4996 19.751 37.813 14.9688 33.0308C10.1866 28.2486 7.5 21.7626 7.5 14.9996C7.50049 12.8111 8.2984 10.6977 9.74442 9.05499C11.1904 7.41226 13.1855 6.3527 15.3562 6.07457C15.6784 6.03319 16.0053 6.09886 16.2865 6.26149C16.5677 6.42411 16.7877 6.67467 16.9125 6.97457L20.6812 15.7683C20.7793 15.994 20.8203 16.2403 20.8006 16.4855C20.781 16.7307 20.7014 16.9674 20.5687 17.1746L17.4375 21.9371C17.2981 22.1525 17.2163 22.4 17.1999 22.6561C17.1834 22.9121 17.233 23.1681 17.3437 23.3996Z" fill="#2DA5F3"/>
<path id="Vector_2" d="M17.3437 23.3996C18.8873 26.5871 21.4648 29.158 24.6562 30.6933C24.8917 30.8048 25.1521 30.853 25.4118 30.8333C25.6715 30.8136 25.9216 30.7266 26.1375 30.5808L30.825 27.4496C31.0321 27.3091 31.2714 27.2234 31.5206 27.2004C31.7698 27.1775 32.0207 27.218 32.25 27.3183L41.025 31.0871C41.3249 31.2119 41.5755 31.4318 41.7381 31.713C41.9007 31.9943 41.9664 32.3211 41.925 32.6433C41.6469 34.8141 40.5873 36.8091 38.9446 38.2551C37.3018 39.7012 35.1885 40.4991 33 40.4996C26.237 40.4996 19.751 37.813 14.9688 33.0308C10.1866 28.2486 7.5 21.7626 7.5 14.9996C7.50049 12.8111 8.2984 10.6977 9.74442 9.05499C11.1904 7.41226 13.1855 6.3527 15.3562 6.07457C15.6784 6.03319 16.0053 6.09886 16.2865 6.26149C16.5677 6.42411 16.7877 6.67467 16.9125 6.97457L20.6812 15.7683C20.7793 15.994 20.8203 16.2403 20.8006 16.4855C20.781 16.7307 20.7014 16.9674 20.5687 17.1746L17.4375 21.9371C17.2981 22.1525 17.2163 22.4 17.1999 22.6561C17.1834 22.9121 17.233 23.1681 17.3437 23.3996V23.3996Z" stroke="#2DA5F3" stroke-width="3" stroke-linecap="round" stroke-linejoin="round"/>
<g id="Vector_3">
<path d="M29.8867 7.5C32.431 8.18283 34.7509 9.52285 36.6136 11.3856C38.4764 13.2483 39.8164 15.5682 40.4992 18.1125" fill="#2DA5F3"/>
<path d="M29.8867 7.5C32.431 8.18283 34.7509 9.52285 36.6136 11.3856C38.4764 13.2483 39.8164 15.5682 40.4992 18.1125" stroke="#2DA5F3" stroke-width="3" stroke-linecap="round" stroke-linejoin="round"/>
</g>
<g id="Vector_4">
<path d="M28.332 13.293C29.8623 13.6994 31.2579 14.5031 32.3774 15.6226C33.4969 16.7421 34.3006 18.1377 34.707 19.668" fill="#2DA5F3"/>
<path d="M28.332 13.293C29.8623 13.6994 31.2579 14.5031 32.3774 15.6226C33.4969 16.7421 34.3006 18.1377 34.707 19.668" stroke="#2DA5F3" stroke-width="3" stroke-linecap="round" stroke-linejoin="round"/>
</g>
</g>
</svg>
