<svg width="32" height="32" viewBox="0 0 32 32" fill="none" xmlns="http://www.w3.org/2000/svg">
<g id="Duotone/Storefront">
<path id="Vector" opacity="0.2" d="M12 12V14C12 15.0609 11.5786 16.0783 10.8284 16.8284C10.0783 17.5786 9.06087 18 8 18C6.93913 18 5.92172 17.5786 5.17157 16.8284C4.42143 16.0783 4 15.0609 4 14V12" fill="#FA8232"/>
<path id="Vector_2" opacity="0.2" d="M28 12V14C28 15.0609 27.5786 16.0783 26.8284 16.8284C26.0783 17.5786 25.0609 18 24 18C22.9391 18 21.9217 17.5786 21.1716 16.8284C20.4214 16.0783 20 15.0609 20 14V12" fill="#FA8232"/>
<path id="Vector_3" d="M6 17.4492V25.9992C6 26.2644 6.10536 26.5188 6.29289 26.7063C6.48043 26.8939 6.73478 26.9992 7 26.9992H25C25.2652 26.9992 25.5196 26.8939 25.7071 26.7063C25.8946 26.5188 26 26.2644 26 25.9992V17.4492" stroke="#FA8232" stroke-width="2" stroke-linecap="round" stroke-linejoin="round"/>
<path id="Vector_4" d="M6.75 5H25.25C25.4669 5.00179 25.6776 5.0732 25.8508 5.20373C26.0241 5.33425 26.1509 5.51698 26.2125 5.725L28 12H4L5.7875 5.725C5.84909 5.51698 5.97587 5.33425 6.14916 5.20373C6.32244 5.0732 6.53306 5.00179 6.75 5V5Z" stroke="#FA8232" stroke-width="2" stroke-linecap="round" stroke-linejoin="round"/>
<path id="Vector_5" d="M12 12V14C12 15.0609 11.5786 16.0783 10.8284 16.8284C10.0783 17.5786 9.06087 18 8 18C6.93913 18 5.92172 17.5786 5.17157 16.8284C4.42143 16.0783 4 15.0609 4 14V12" stroke="#FA8232" stroke-width="2" stroke-linecap="round" stroke-linejoin="round"/>
<path id="Vector_6" d="M20 12V14C20 15.0609 19.5786 16.0783 18.8284 16.8284C18.0783 17.5786 17.0609 18 16 18C14.9391 18 13.9217 17.5786 13.1716 16.8284C12.4214 16.0783 12 15.0609 12 14V12" stroke="#FA8232" stroke-width="2" stroke-linecap="round" stroke-linejoin="round"/>
<path id="Vector_7" d="M28 12V14C28 15.0609 27.5786 16.0783 26.8284 16.8284C26.0783 17.5786 25.0609 18 24 18C22.9391 18 21.9217 17.5786 21.1716 16.8284C20.4214 16.0783 20 15.0609 20 14V12" stroke="#FA8232" stroke-width="2" stroke-linecap="round" stroke-linejoin="round"/>
</g>
</svg>
