<svg width="24" height="24" viewBox="0 0 24 24" fill="none" xmlns="http://www.w3.org/2000/svg">
<g id="Duotone/ArrowsCounterClockwise">
<path id="Vector" d="M7.48126 9.34688H2.98126V4.84688" stroke="#5F6C72" stroke-width="1.5" stroke-linecap="round" stroke-linejoin="round"/>
<path id="Vector_2" d="M17.8313 6.16874C17.0659 5.40226 16.1569 4.79418 15.1563 4.3793C14.1558 3.96442 13.0832 3.75087 12 3.75087C10.9168 3.75087 9.84427 3.96442 8.84369 4.3793C7.8431 4.79418 6.93413 5.40226 6.16876 6.16874L2.98126 9.34687" stroke="#5F6C72" stroke-width="1.5" stroke-linecap="round" stroke-linejoin="round"/>
<path id="Vector_3" d="M16.5187 14.6531H21.0187V19.1531" stroke="#5F6C72" stroke-width="1.5" stroke-linecap="round" stroke-linejoin="round"/>
<path id="Vector_4" d="M6.16876 17.8313C6.93413 18.5977 7.8431 19.2058 8.84368 19.6207C9.84427 20.0356 10.9168 20.2491 12 20.2491C13.0832 20.2491 14.1558 20.0356 15.1563 19.6207C16.1569 19.2058 17.0659 18.5977 17.8313 17.8313L21.0188 14.6531" stroke="#5F6C72" stroke-width="1.5" stroke-linecap="round" stroke-linejoin="round"/>
</g>
</svg>
