<svg width="32" height="32" viewBox="0 0 32 32" fill="none" xmlns="http://www.w3.org/2000/svg">
<g id="Duotone/Rocket">
<path id="Vector" opacity="0.2" d="M9.23744 13.9258L5.31244 18.6258C5.21356 18.7411 5.14379 18.8785 5.10899 19.0264C5.07419 19.1743 5.07538 19.3284 5.11244 19.4758L6.64994 26.4383C6.68704 26.6038 6.76563 26.7571 6.87831 26.8839C6.99099 27.0107 7.13405 27.1067 7.29406 27.1629C7.45407 27.2192 7.62575 27.2338 7.79297 27.2054C7.96018 27.1771 8.11744 27.1067 8.24994 27.0008L11.9999 24.0008C9.79994 20.1758 9.08744 16.8133 9.23744 13.9258Z" fill="#2DA5F3"/>
<path id="Vector_2" opacity="0.2" d="M22.6875 13.8379L26.6125 18.5504C26.7114 18.6658 26.7812 18.8031 26.816 18.9511C26.8508 19.099 26.8496 19.253 26.8125 19.4004L25.275 26.3504C25.2396 26.5169 25.1622 26.6717 25.0503 26.8C24.9383 26.9282 24.7954 27.0258 24.6351 27.0834C24.4749 27.141 24.3026 27.1567 24.1346 27.129C23.9666 27.1014 23.8084 27.0313 23.675 26.9254L19.925 23.9254C22.125 20.0879 22.8375 16.7254 22.6875 13.8379Z" fill="#2DA5F3"/>
<path id="Vector_3" d="M18 28H14" stroke="#2DA5F3" stroke-width="2" stroke-linecap="round" stroke-linejoin="round"/>
<path id="Vector_4" d="M15.3751 2.47472C13.0001 4.37472 5.06255 11.9747 12.0001 23.9997H20.0001C26.8001 11.9747 18.9751 4.38722 16.6251 2.47472C16.4497 2.32827 16.2285 2.24805 16.0001 2.24805C15.7716 2.24805 15.5504 2.32827 15.3751 2.47472Z" stroke="#2DA5F3" stroke-width="2" stroke-linecap="round" stroke-linejoin="round"/>
<path id="Vector_5" d="M9.23744 13.9258L5.31244 18.6258C5.21356 18.7411 5.14379 18.8785 5.10899 19.0264C5.07419 19.1743 5.07538 19.3284 5.11244 19.4758L6.64994 26.4383C6.68704 26.6038 6.76563 26.7571 6.87831 26.8839C6.99099 27.0107 7.13405 27.1067 7.29406 27.1629C7.45407 27.2192 7.62575 27.2338 7.79297 27.2054C7.96018 27.1771 8.11744 27.1067 8.24994 27.0008L11.9999 24.0008" stroke="#2DA5F3" stroke-width="2" stroke-linecap="round" stroke-linejoin="round"/>
<path id="Vector_6" d="M22.6875 13.8242L26.6875 18.6242C26.7864 18.7396 26.8561 18.877 26.8909 19.0249C26.9258 19.1728 26.9246 19.3269 26.8875 19.4742L25.35 26.4367C25.3129 26.6022 25.2343 26.7556 25.1216 26.8823C25.009 27.0091 24.8659 27.1051 24.7059 27.1614C24.5459 27.2176 24.3742 27.2323 24.207 27.2039C24.0398 27.1755 23.8825 27.1051 23.75 26.9992L20 23.9992" stroke="#2DA5F3" stroke-width="2" stroke-linecap="round" stroke-linejoin="round"/>
<path id="Vector_7" d="M16 13.5C16.8284 13.5 17.5 12.8284 17.5 12C17.5 11.1716 16.8284 10.5 16 10.5C15.1716 10.5 14.5 11.1716 14.5 12C14.5 12.8284 15.1716 13.5 16 13.5Z" fill="#2DA5F3"/>
</g>
</svg>
